# xmcd CD database file
#
# Track frame offsets:
#	150
#	20629
#	46035
#	74662
#	105201
#	130745
#	169834
#	200462
#	235557
#
# Disc length: 3700 seconds
#
# Revision: 0
# Processed by: cddbd v1.5PL3 Copyright (c) Steve Scherf et al.
# Submitted via: CDex 1.50
#
DISCID=6e0e7209
DTITLE=Melvin Rhyne - Kojo
DYEAR=1997
DGENRE=Jazz
TTITLE0=Blue Gold
TTITLE1=Blues For Mike And Teju
TTITLE2=The End Of A Love Affair
TTITLE3=I Wish I Knew
TTITLE4=Blue 'N' Boogie
TTITLE5=Loose Change
TTITLE6=In A Sentimental Mood
TTITLE7=A Time For Love
TTITLE8=Dorothy
EXTD=YEAR: 1997
EXTT0=
EXTT1=
EXTT2=
EXTT3=
EXTT4=
EXTT5=
EXTT6=
EXTT7=
EXTT8=
PLAYORDER=
